<svg width="180" height="16" viewBox="0 0 180 16" fill="none" xmlns="http://www.w3.org/2000/svg">
<path fill-rule="evenodd" clip-rule="evenodd" d="M8.00065 1.33398C4.31865 1.33398 1.33398 4.31865 1.33398 8.00065C1.33398 11.6827 4.31865 14.6673 8.00065 14.6673C11.6827 14.6673 14.6673 11.6827 14.6673 8.00065C14.6673 4.31865 11.6827 1.33398 8.00065 1.33398ZM6.00065 8.00065C6.00069 7.59443 6.12443 7.19784 6.35541 6.86368C6.58639 6.52951 6.91365 6.2736 7.29364 6.12999C7.67364 5.98639 8.08835 5.96191 8.48261 6.0598C8.87686 6.15769 9.23196 6.37332 9.50065 6.67798C9.6177 6.81059 9.78263 6.89127 9.95917 6.90227C10.1357 6.91328 10.3094 6.8537 10.442 6.73665C10.5746 6.6196 10.6553 6.45467 10.6663 6.27813C10.6773 6.1016 10.6177 5.92793 10.5007 5.79532C10.0528 5.28757 9.46092 4.92824 8.80381 4.76514C8.1467 4.60205 7.4555 4.64292 6.82219 4.88232C6.18888 5.12172 5.64349 5.54829 5.25858 6.10528C4.87367 6.66227 4.6675 7.32327 4.6675 8.00032C4.6675 8.67736 4.87367 9.33836 5.25858 9.89535C5.64349 10.4523 6.18888 10.8789 6.82219 11.1183C7.4555 11.3577 8.1467 11.3986 8.80381 11.2355C9.46092 11.0724 10.0528 10.7131 10.5007 10.2053C10.5586 10.1397 10.603 10.0632 10.6314 9.98041C10.6597 9.89758 10.6715 9.80998 10.666 9.7226C10.6606 9.63522 10.6379 9.54977 10.5994 9.47114C10.5609 9.39251 10.5073 9.32223 10.4417 9.26432C10.376 9.2064 10.2996 9.16199 10.2167 9.13361C10.1339 9.10524 10.0463 9.09345 9.95893 9.09893C9.87155 9.10441 9.78611 9.12704 9.70747 9.16554C9.62884 9.20405 9.55856 9.25766 9.50065 9.32332C9.23196 9.62799 8.87686 9.84361 8.48261 9.9415C8.08835 10.0394 7.67364 10.0149 7.29364 9.87131C6.91365 9.72771 6.58639 9.47179 6.35541 9.13762C6.12443 8.80346 6.00069 8.40688 6.00065 8.00065Z" fill="white"/>
<path d="M26.8066 9.19336H28.418C28.375 9.76367 28.2168 10.2695 27.9434 10.7109C27.6699 11.1484 27.2891 11.4922 26.8008 11.7422C26.3125 11.9922 25.7207 12.1172 25.0254 12.1172C24.4902 12.1172 24.0078 12.0234 23.5781 11.8359C23.1523 11.6445 22.7871 11.373 22.4824 11.0215C22.1816 10.666 21.9512 10.2402 21.791 9.74414C21.6309 9.24414 21.5508 8.68359 21.5508 8.0625V7.41211C21.5508 6.79102 21.6328 6.23047 21.7969 5.73047C21.9609 5.23047 22.1953 4.80469 22.5 4.45312C22.8086 4.09766 23.1777 3.82422 23.6074 3.63281C24.041 3.44141 24.5254 3.3457 25.0605 3.3457C25.7559 3.3457 26.3438 3.47461 26.8242 3.73242C27.3047 3.98633 27.6777 4.33594 27.9434 4.78125C28.209 5.22656 28.3691 5.73828 28.4238 6.31641H26.8125C26.7812 5.95703 26.7031 5.65234 26.5781 5.40234C26.457 5.15234 26.2734 4.96289 26.0273 4.83398C25.7852 4.70117 25.4629 4.63477 25.0605 4.63477C24.748 4.63477 24.4727 4.69336 24.2344 4.81055C24 4.92773 23.8047 5.10352 23.6484 5.33789C23.4922 5.56836 23.375 5.85742 23.2969 6.20508C23.2188 6.54883 23.1797 6.94727 23.1797 7.40039V8.0625C23.1797 8.49609 23.2148 8.88477 23.2852 9.22852C23.3555 9.57227 23.4648 9.86328 23.6133 10.1016C23.7617 10.3398 23.9531 10.5215 24.1875 10.6465C24.4219 10.7715 24.7012 10.834 25.0254 10.834C25.4199 10.834 25.7402 10.7715 25.9863 10.6465C26.2363 10.5215 26.4258 10.3379 26.5547 10.0957C26.6875 9.85352 26.7715 9.55273 26.8066 9.19336ZM29.2734 8.89453V8.77148C29.2734 8.30664 29.3398 7.87891 29.4727 7.48828C29.6055 7.09375 29.7988 6.75195 30.0527 6.46289C30.3066 6.17383 30.6172 5.94922 30.9844 5.78906C31.3516 5.625 31.7695 5.54297 32.2383 5.54297C32.7148 5.54297 33.1367 5.625 33.5039 5.78906C33.875 5.94922 34.1875 6.17383 34.4414 6.46289C34.6953 6.75195 34.8887 7.09375 35.0215 7.48828C35.1543 7.87891 35.2207 8.30664 35.2207 8.77148V8.89453C35.2207 9.35547 35.1543 9.7832 35.0215 10.1777C34.8887 10.5684 34.6953 10.9102 34.4414 11.2031C34.1875 11.4922 33.877 11.7168 33.5098 11.877C33.1426 12.0371 32.7227 12.1172 32.25 12.1172C31.7812 12.1172 31.3613 12.0371 30.9902 11.877C30.6191 11.7168 30.3066 11.4922 30.0527 11.2031C29.7988 10.9102 29.6055 10.5684 29.4727 10.1777C29.3398 9.7832 29.2734 9.35547 29.2734 8.89453ZM30.8203 8.77148V8.89453C30.8203 9.17188 30.8477 9.43164 30.9023 9.67383C30.957 9.91602 31.041 10.1289 31.1543 10.3125C31.2676 10.4961 31.4141 10.6406 31.5938 10.7461C31.7773 10.8477 31.9961 10.8984 32.25 10.8984C32.5 10.8984 32.7148 10.8477 32.8945 10.7461C33.0742 10.6406 33.2207 10.4961 33.334 10.3125C33.4512 10.1289 33.5371 9.91602 33.5918 9.67383C33.6465 9.43164 33.6738 9.17188 33.6738 8.89453V8.77148C33.6738 8.49805 33.6465 8.24219 33.5918 8.00391C33.5371 7.76172 33.4512 7.54883 33.334 7.36523C33.2207 7.17773 33.0723 7.03125 32.8887 6.92578C32.709 6.81641 32.4922 6.76172 32.2383 6.76172C31.9883 6.76172 31.7734 6.81641 31.5938 6.92578C31.4141 7.03125 31.2676 7.17773 31.1543 7.36523C31.041 7.54883 30.957 7.76172 30.9023 8.00391C30.8477 8.24219 30.8203 8.49805 30.8203 8.77148ZM37.8926 6.87891V14.4375H36.3398V5.66016H37.7754L37.8926 6.87891ZM41.9648 8.76562V8.88867C41.9648 9.34961 41.9102 9.77734 41.8008 10.1719C41.6953 10.5625 41.5391 10.9043 41.332 11.1973C41.125 11.4863 40.8672 11.7129 40.5586 11.877C40.2539 12.0371 39.9023 12.1172 39.5039 12.1172C39.1133 12.1172 38.7734 12.043 38.4844 11.8945C38.1953 11.7422 37.9512 11.5273 37.752 11.25C37.5527 10.9727 37.3926 10.6504 37.2715 10.2832C37.1543 9.91211 37.0664 9.50781 37.0078 9.07031V8.67773C37.0664 8.21289 37.1543 7.79102 37.2715 7.41211C37.3926 7.0293 37.5527 6.69922 37.752 6.42188C37.9512 6.14062 38.1934 5.92383 38.4785 5.77148C38.7676 5.61914 39.1055 5.54297 39.4922 5.54297C39.8945 5.54297 40.248 5.61914 40.5527 5.77148C40.8613 5.92383 41.1211 6.14258 41.332 6.42773C41.543 6.71289 41.7012 7.05273 41.8066 7.44727C41.9121 7.8418 41.9648 8.28125 41.9648 8.76562ZM40.4121 8.88867V8.76562C40.4121 8.48438 40.3867 8.22461 40.3359 7.98633C40.2852 7.74414 40.207 7.5332 40.1016 7.35352C39.9961 7.16992 39.8594 7.02734 39.6914 6.92578C39.5234 6.82422 39.3203 6.77344 39.082 6.77344C38.8438 6.77344 38.6387 6.8125 38.4668 6.89062C38.2949 6.96875 38.1543 7.08008 38.0449 7.22461C37.9355 7.36914 37.8496 7.54102 37.7871 7.74023C37.7285 7.93555 37.6895 8.15234 37.6699 8.39062V9.36328C37.7051 9.65234 37.7734 9.91211 37.875 10.1426C37.9766 10.373 38.125 10.5566 38.3203 10.6934C38.5195 10.8301 38.7773 10.8984 39.0938 10.8984C39.332 10.8984 39.5352 10.8457 39.7031 10.7402C39.8711 10.6348 40.0078 10.4902 40.1133 10.3066C40.2188 10.1191 40.2949 9.9043 40.3418 9.66211C40.3887 9.41992 40.4121 9.16211 40.4121 8.88867ZM44.8828 11.2969L46.582 5.66016H48.2402L45.6973 12.9609C45.6387 13.1172 45.5625 13.2871 45.4688 13.4707C45.3789 13.6543 45.2578 13.8281 45.1055 13.9922C44.9531 14.1602 44.7617 14.2969 44.5312 14.4023C44.3047 14.5078 44.0293 14.5605 43.7051 14.5605C43.5645 14.5605 43.4395 14.5508 43.3301 14.5312C43.2207 14.5117 43.1055 14.4863 42.9844 14.4551V13.2949C43.0234 13.2988 43.0684 13.3008 43.1191 13.3008C43.1738 13.3047 43.2207 13.3066 43.2598 13.3066C43.4863 13.3066 43.6738 13.2793 43.8223 13.2246C43.9707 13.1738 44.0898 13.0898 44.1797 12.9727C44.2734 12.8594 44.3516 12.7109 44.4141 12.5273L44.8828 11.2969ZM44.0449 5.66016L45.4805 10.3301L45.7324 11.9648L44.666 12.1582L42.375 5.66016H44.0449ZM50.5371 6.95508V12H48.9902V5.66016H50.4551L50.5371 6.95508ZM52.4648 5.61914L52.4414 7.06055C52.3555 7.04492 52.2578 7.0332 52.1484 7.02539C52.043 7.01758 51.9434 7.01367 51.8496 7.01367C51.6113 7.01367 51.4023 7.04688 51.2227 7.11328C51.043 7.17578 50.8926 7.26758 50.7715 7.38867C50.6543 7.50977 50.5645 7.6582 50.502 7.83398C50.4395 8.00586 50.4043 8.20117 50.3965 8.41992L50.0625 8.37891C50.0625 7.97656 50.1035 7.60352 50.1855 7.25977C50.2676 6.91602 50.3867 6.61523 50.543 6.35742C50.6992 6.09961 50.8945 5.90039 51.1289 5.75977C51.3672 5.61523 51.6406 5.54297 51.9492 5.54297C52.0352 5.54297 52.127 5.55078 52.2246 5.56641C52.3262 5.57812 52.4062 5.5957 52.4648 5.61914ZM54.9551 5.66016V12H53.4023V5.66016H54.9551ZM53.2969 4.00195C53.2969 3.77148 53.375 3.58008 53.5312 3.42773C53.6914 3.27539 53.9062 3.19922 54.1758 3.19922C54.4453 3.19922 54.6582 3.27539 54.8145 3.42773C54.9746 3.58008 55.0547 3.77148 55.0547 4.00195C55.0547 4.22852 54.9746 4.41797 54.8145 4.57031C54.6582 4.72266 54.4453 4.79883 54.1758 4.79883C53.9062 4.79883 53.6914 4.72266 53.5312 4.57031C53.375 4.41797 53.2969 4.22852 53.2969 4.00195ZM60.4629 5.66016H61.8691V11.8066C61.8691 12.3809 61.7441 12.8672 61.4941 13.2656C61.248 13.668 60.9023 13.9727 60.457 14.1797C60.0117 14.3906 59.4941 14.4961 58.9043 14.4961C58.6504 14.4961 58.375 14.4609 58.0781 14.3906C57.7852 14.3203 57.502 14.209 57.2285 14.0566C56.959 13.9082 56.7344 13.7148 56.5547 13.4766L57.252 12.5625C57.4629 12.8086 57.7012 12.9941 57.9668 13.1191C58.2324 13.248 58.5195 13.3125 58.8281 13.3125C59.1406 13.3125 59.4062 13.2539 59.625 13.1367C59.8477 13.0234 60.0176 12.8555 60.1348 12.6328C60.2559 12.4141 60.3164 12.1445 60.3164 11.8242V7.10742L60.4629 5.66016ZM56.1797 8.90625V8.7832C56.1797 8.29883 56.2383 7.85938 56.3555 7.46484C56.4727 7.06641 56.6406 6.72461 56.8594 6.43945C57.082 6.1543 57.3496 5.93359 57.6621 5.77734C57.9785 5.62109 58.334 5.54297 58.7285 5.54297C59.1465 5.54297 59.498 5.61914 59.7832 5.77148C60.0723 5.92383 60.3105 6.14062 60.498 6.42188C60.6895 6.70312 60.8379 7.03711 60.9434 7.42383C61.0527 7.80664 61.1367 8.22852 61.1953 8.68945V9.02344C61.1406 9.47266 61.0527 9.88477 60.9316 10.2598C60.8145 10.6348 60.6582 10.9629 60.4629 11.2441C60.2676 11.5215 60.0254 11.7363 59.7363 11.8887C59.4473 12.041 59.1074 12.1172 58.7168 12.1172C58.3262 12.1172 57.9746 12.0371 57.6621 11.877C57.3496 11.7168 57.082 11.4922 56.8594 11.2031C56.6406 10.9141 56.4727 10.5742 56.3555 10.1836C56.2383 9.79297 56.1797 9.36719 56.1797 8.90625ZM57.7266 8.7832V8.90625C57.7266 9.17969 57.7539 9.43555 57.8086 9.67383C57.8633 9.91211 57.9473 10.123 58.0605 10.3066C58.1738 10.4863 58.3164 10.627 58.4883 10.7285C58.6602 10.8301 58.8652 10.8809 59.1035 10.8809C59.4238 10.8809 59.6855 10.8145 59.8887 10.6816C60.0957 10.5449 60.252 10.3594 60.3574 10.125C60.4668 9.88672 60.5371 9.61914 60.5684 9.32227V8.40234C60.5488 8.16797 60.5059 7.95117 60.4395 7.75195C60.377 7.55273 60.2891 7.38086 60.1758 7.23633C60.0625 7.0918 59.918 6.97852 59.7422 6.89648C59.5664 6.81445 59.3574 6.77344 59.1152 6.77344C58.8809 6.77344 58.6758 6.82617 58.5 6.93164C58.3242 7.0332 58.1797 7.17578 58.0664 7.35938C57.9531 7.54297 57.8672 7.75586 57.8086 7.99805C57.7539 8.24023 57.7266 8.50195 57.7266 8.7832ZM64.7812 3V12H63.2285V3H64.7812ZM64.5352 8.60156H64.0781C64.0781 8.16016 64.1367 7.75391 64.2539 7.38281C64.3711 7.01172 64.5371 6.68945 64.752 6.41602C64.9668 6.13867 65.2227 5.92383 65.5195 5.77148C65.8203 5.61914 66.1523 5.54297 66.5156 5.54297C66.8281 5.54297 67.1113 5.58789 67.3652 5.67773C67.623 5.76367 67.8438 5.90234 68.0273 6.09375C68.2109 6.28516 68.3516 6.53516 68.4492 6.84375C68.5508 7.14844 68.6016 7.51953 68.6016 7.95703V12H67.043V7.94531C67.043 7.65234 67 7.42188 66.9141 7.25391C66.8281 7.08203 66.7051 6.95898 66.5449 6.88477C66.3887 6.81055 66.1953 6.77344 65.9648 6.77344C65.7148 6.77344 65.5 6.82227 65.3203 6.91992C65.1406 7.01367 64.9922 7.14453 64.875 7.3125C64.7617 7.48047 64.6758 7.67383 64.6172 7.89258C64.5625 8.11133 64.5352 8.34766 64.5352 8.60156ZM72.9668 5.66016V6.77344H69.334V5.66016H72.9668ZM70.3066 4.10156H71.8594V10.1719C71.8594 10.3594 71.8848 10.5039 71.9355 10.6055C71.9863 10.707 72.0625 10.7754 72.1641 10.8105C72.2656 10.8457 72.3867 10.8633 72.5273 10.8633C72.6289 10.8633 72.7227 10.8574 72.8086 10.8457C72.8945 10.834 72.9668 10.8223 73.0254 10.8105L73.0312 11.9707C72.9023 12.0137 72.7559 12.0488 72.5918 12.0762C72.4316 12.1035 72.25 12.1172 72.0469 12.1172C71.6992 12.1172 71.3945 12.0586 71.1328 11.9414C70.8711 11.8203 70.668 11.627 70.5234 11.3613C70.3789 11.0918 70.3066 10.7363 70.3066 10.2949V4.10156ZM82.6816 10.7812V12H76.9043V10.957L79.6758 7.96289C79.9648 7.63477 80.1934 7.34961 80.3613 7.10742C80.5293 6.86523 80.6484 6.64648 80.7188 6.45117C80.793 6.25195 80.8301 6.0625 80.8301 5.88281C80.8301 5.62109 80.7832 5.39258 80.6895 5.19727C80.5957 4.99805 80.459 4.84375 80.2793 4.73438C80.1035 4.625 79.8867 4.57031 79.6289 4.57031C79.3438 4.57031 79.0996 4.63672 78.8965 4.76953C78.6973 4.89844 78.5449 5.07812 78.4395 5.30859C78.3379 5.53906 78.2871 5.80273 78.2871 6.09961H76.7344C76.7344 5.5957 76.8516 5.13672 77.0859 4.72266C77.3203 4.30469 77.6562 3.9707 78.0938 3.7207C78.5312 3.4707 79.0508 3.3457 79.6523 3.3457C80.2383 3.3457 80.7344 3.44336 81.1406 3.63867C81.5469 3.83008 81.8555 4.10352 82.0664 4.45898C82.2773 4.81445 82.3828 5.23828 82.3828 5.73047C82.3828 6.00391 82.3379 6.27344 82.248 6.53906C82.1582 6.80469 82.0312 7.06836 81.8672 7.33008C81.707 7.58789 81.5156 7.84961 81.293 8.11523C81.0703 8.38086 80.8223 8.65234 80.5488 8.92969L78.8848 10.7812H82.6816ZM89.4082 7.00195V8.4375C89.4082 9.09375 89.3418 9.6543 89.209 10.1191C89.0762 10.584 88.8848 10.9648 88.6348 11.2617C88.3848 11.5547 88.0859 11.7715 87.7383 11.9121C87.3906 12.0488 87.0039 12.1172 86.5781 12.1172C86.2383 12.1172 85.9219 12.0742 85.6289 11.9883C85.3359 11.8984 85.0723 11.7617 84.8379 11.5781C84.6074 11.3906 84.4082 11.1523 84.2402 10.8633C84.0762 10.5742 83.9492 10.2285 83.8594 9.82617C83.7734 9.42383 83.7305 8.96094 83.7305 8.4375V7.00195C83.7305 6.3457 83.7969 5.78711 83.9297 5.32617C84.0664 4.86523 84.2598 4.48828 84.5098 4.19531C84.7598 3.90234 85.0586 3.68945 85.4062 3.55664C85.7539 3.41992 86.1406 3.35156 86.5664 3.35156C86.9102 3.35156 87.2266 3.39453 87.5156 3.48047C87.8086 3.56641 88.0703 3.70117 88.3008 3.88477C88.5352 4.06445 88.7344 4.29883 88.8984 4.58789C89.0625 4.87305 89.1875 5.2168 89.2734 5.61914C89.3633 6.01758 89.4082 6.47852 89.4082 7.00195ZM87.8613 8.64844V6.78516C87.8613 6.45703 87.8418 6.17188 87.8027 5.92969C87.7676 5.68359 87.7148 5.47461 87.6445 5.30273C87.5742 5.13086 87.4863 4.99219 87.3809 4.88672C87.2754 4.77734 87.1543 4.69727 87.0176 4.64648C86.8809 4.5957 86.7305 4.57031 86.5664 4.57031C86.3633 4.57031 86.1816 4.61133 86.0215 4.69336C85.8613 4.77148 85.7266 4.89648 85.6172 5.06836C85.5078 5.24023 85.4238 5.46875 85.3652 5.75391C85.3105 6.03516 85.2832 6.37891 85.2832 6.78516V8.64844C85.2832 8.97656 85.3008 9.26367 85.3359 9.50977C85.375 9.75586 85.4297 9.9668 85.5 10.1426C85.5742 10.3184 85.6621 10.4629 85.7637 10.5762C85.8691 10.6855 85.9902 10.7676 86.127 10.8223C86.2637 10.873 86.4141 10.8984 86.5781 10.8984C86.7852 10.8984 86.9668 10.8574 87.123 10.7754C87.2832 10.6934 87.418 10.5645 87.5273 10.3887C87.6367 10.209 87.7188 9.97656 87.7734 9.69141C87.832 9.40234 87.8613 9.05469 87.8613 8.64844ZM96.3926 10.7812V12H90.6152V10.957L93.3867 7.96289C93.6758 7.63477 93.9043 7.34961 94.0723 7.10742C94.2402 6.86523 94.3594 6.64648 94.4297 6.45117C94.5039 6.25195 94.541 6.0625 94.541 5.88281C94.541 5.62109 94.4941 5.39258 94.4004 5.19727C94.3066 4.99805 94.1699 4.84375 93.9902 4.73438C93.8145 4.625 93.5977 4.57031 93.3398 4.57031C93.0547 4.57031 92.8105 4.63672 92.6074 4.76953C92.4082 4.89844 92.2559 5.07812 92.1504 5.30859C92.0488 5.53906 91.998 5.80273 91.998 6.09961H90.4453C90.4453 5.5957 90.5625 5.13672 90.7969 4.72266C91.0312 4.30469 91.3672 3.9707 91.8047 3.7207C92.2422 3.4707 92.7617 3.3457 93.3633 3.3457C93.9492 3.3457 94.4453 3.44336 94.8516 3.63867C95.2578 3.83008 95.5664 4.10352 95.7773 4.45898C95.9883 4.81445 96.0938 5.23828 96.0938 5.73047C96.0938 6.00391 96.0488 6.27344 95.959 6.53906C95.8691 6.80469 95.7422 7.06836 95.5781 7.33008C95.418 7.58789 95.2266 7.84961 95.0039 8.11523C94.7812 8.38086 94.5332 8.65234 94.2598 8.92969L92.5957 10.7812H96.3926ZM99.0059 8.07422L97.7695 7.77539L98.2441 3.46875H102.938V4.75195H99.5273L99.3047 6.74414C99.4258 6.66992 99.6016 6.5957 99.832 6.52148C100.066 6.44336 100.33 6.4043 100.623 6.4043C101.029 6.4043 101.393 6.4707 101.713 6.60352C102.033 6.73242 102.305 6.91992 102.527 7.16602C102.754 7.41211 102.924 7.71289 103.037 8.06836C103.154 8.41992 103.213 8.81836 103.213 9.26367C103.213 9.6543 103.154 10.0215 103.037 10.3652C102.924 10.7051 102.75 11.0078 102.516 11.2734C102.281 11.5352 101.986 11.7422 101.631 11.8945C101.275 12.043 100.857 12.1172 100.377 12.1172C100.014 12.1172 99.6641 12.0645 99.3281 11.959C98.9961 11.8496 98.6973 11.6914 98.4316 11.4844C98.166 11.2734 97.9531 11.0156 97.793 10.7109C97.6367 10.4062 97.5508 10.0566 97.5352 9.66211H99.0645C99.0918 9.92383 99.1621 10.1465 99.2754 10.3301C99.3887 10.5137 99.5371 10.6543 99.7207 10.752C99.9082 10.8496 100.125 10.8984 100.371 10.8984C100.594 10.8984 100.785 10.8574 100.945 10.7754C101.109 10.6895 101.244 10.5703 101.35 10.418C101.455 10.2656 101.533 10.0859 101.584 9.87891C101.635 9.67188 101.66 9.44531 101.66 9.19922C101.66 8.96094 101.631 8.74414 101.572 8.54883C101.514 8.34961 101.424 8.17773 101.303 8.0332C101.182 7.88867 101.029 7.77734 100.846 7.69922C100.666 7.62109 100.455 7.58203 100.213 7.58203C99.8887 7.58203 99.6387 7.63086 99.4629 7.72852C99.291 7.82617 99.1387 7.94141 99.0059 8.07422ZM110.479 7.73438V8.95898H107.273V7.73438H110.479ZM118.301 4.76367L115.869 12H114.164L117.352 3.46875H118.441L118.301 4.76367ZM120.334 12L117.891 4.76367L117.744 3.46875H118.84L122.045 12H120.334ZM120.223 8.83008V10.1016H115.646V8.83008H120.223ZM124.201 6.87891V14.4375H122.648V5.66016H124.084L124.201 6.87891ZM128.273 8.76562V8.88867C128.273 9.34961 128.219 9.77734 128.109 10.1719C128.004 10.5625 127.848 10.9043 127.641 11.1973C127.434 11.4863 127.176 11.7129 126.867 11.877C126.562 12.0371 126.211 12.1172 125.812 12.1172C125.422 12.1172 125.082 12.043 124.793 11.8945C124.504 11.7422 124.26 11.5273 124.061 11.25C123.861 10.9727 123.701 10.6504 123.58 10.2832C123.463 9.91211 123.375 9.50781 123.316 9.07031V8.67773C123.375 8.21289 123.463 7.79102 123.58 7.41211C123.701 7.0293 123.861 6.69922 124.061 6.42188C124.26 6.14062 124.502 5.92383 124.787 5.77148C125.076 5.61914 125.414 5.54297 125.801 5.54297C126.203 5.54297 126.557 5.61914 126.861 5.77148C127.17 5.92383 127.43 6.14258 127.641 6.42773C127.852 6.71289 128.01 7.05273 128.115 7.44727C128.221 7.8418 128.273 8.28125 128.273 8.76562ZM126.721 8.88867V8.76562C126.721 8.48438 126.695 8.22461 126.645 7.98633C126.594 7.74414 126.516 7.5332 126.41 7.35352C126.305 7.16992 126.168 7.02734 126 6.92578C125.832 6.82422 125.629 6.77344 125.391 6.77344C125.152 6.77344 124.947 6.8125 124.775 6.89062C124.604 6.96875 124.463 7.08008 124.354 7.22461C124.244 7.36914 124.158 7.54102 124.096 7.74023C124.037 7.93555 123.998 8.15234 123.979 8.39062V9.36328C124.014 9.65234 124.082 9.91211 124.184 10.1426C124.285 10.373 124.434 10.5566 124.629 10.6934C124.828 10.8301 125.086 10.8984 125.402 10.8984C125.641 10.8984 125.844 10.8457 126.012 10.7402C126.18 10.6348 126.316 10.4902 126.422 10.3066C126.527 10.1191 126.604 9.9043 126.65 9.66211C126.697 9.41992 126.721 9.16211 126.721 8.88867ZM130.951 6.87891V14.4375H129.398V5.66016H130.834L130.951 6.87891ZM135.023 8.76562V8.88867C135.023 9.34961 134.969 9.77734 134.859 10.1719C134.754 10.5625 134.598 10.9043 134.391 11.1973C134.184 11.4863 133.926 11.7129 133.617 11.877C133.312 12.0371 132.961 12.1172 132.562 12.1172C132.172 12.1172 131.832 12.043 131.543 11.8945C131.254 11.7422 131.01 11.5273 130.811 11.25C130.611 10.9727 130.451 10.6504 130.33 10.2832C130.213 9.91211 130.125 9.50781 130.066 9.07031V8.67773C130.125 8.21289 130.213 7.79102 130.33 7.41211C130.451 7.0293 130.611 6.69922 130.811 6.42188C131.01 6.14062 131.252 5.92383 131.537 5.77148C131.826 5.61914 132.164 5.54297 132.551 5.54297C132.953 5.54297 133.307 5.61914 133.611 5.77148C133.92 5.92383 134.18 6.14258 134.391 6.42773C134.602 6.71289 134.76 7.05273 134.865 7.44727C134.971 7.8418 135.023 8.28125 135.023 8.76562ZM133.471 8.88867V8.76562C133.471 8.48438 133.445 8.22461 133.395 7.98633C133.344 7.74414 133.266 7.5332 133.16 7.35352C133.055 7.16992 132.918 7.02734 132.75 6.92578C132.582 6.82422 132.379 6.77344 132.141 6.77344C131.902 6.77344 131.697 6.8125 131.525 6.89062C131.354 6.96875 131.213 7.08008 131.104 7.22461C130.994 7.36914 130.908 7.54102 130.846 7.74023C130.787 7.93555 130.748 8.15234 130.729 8.39062V9.36328C130.764 9.65234 130.832 9.91211 130.934 10.1426C131.035 10.373 131.184 10.5566 131.379 10.6934C131.578 10.8301 131.836 10.8984 132.152 10.8984C132.391 10.8984 132.594 10.8457 132.762 10.7402C132.93 10.6348 133.066 10.4902 133.172 10.3066C133.277 10.1191 133.354 9.9043 133.4 9.66211C133.447 9.41992 133.471 9.16211 133.471 8.88867ZM140.66 7.01367V12H139.113V5.66016H140.566L140.66 7.01367ZM140.414 8.60156H139.957C139.961 8.14062 140.023 7.72266 140.145 7.34766C140.266 6.97266 140.436 6.65039 140.654 6.38086C140.877 6.11133 141.141 5.9043 141.445 5.75977C141.75 5.61523 142.09 5.54297 142.465 5.54297C142.77 5.54297 143.045 5.58594 143.291 5.67188C143.537 5.75781 143.748 5.89453 143.924 6.08203C144.104 6.26953 144.24 6.51562 144.334 6.82031C144.432 7.12109 144.48 7.49219 144.48 7.93359V12H142.922V7.92188C142.922 7.63281 142.879 7.4043 142.793 7.23633C142.711 7.06836 142.59 6.94922 142.43 6.87891C142.273 6.80859 142.08 6.77344 141.85 6.77344C141.611 6.77344 141.402 6.82227 141.223 6.91992C141.047 7.01367 140.898 7.14453 140.777 7.3125C140.66 7.48047 140.57 7.67383 140.508 7.89258C140.445 8.11133 140.414 8.34766 140.414 8.60156ZM145.57 8.89453V8.77148C145.57 8.30664 145.637 7.87891 145.77 7.48828C145.902 7.09375 146.096 6.75195 146.35 6.46289C146.604 6.17383 146.914 5.94922 147.281 5.78906C147.648 5.625 148.066 5.54297 148.535 5.54297C149.012 5.54297 149.434 5.625 149.801 5.78906C150.172 5.94922 150.484 6.17383 150.738 6.46289C150.992 6.75195 151.186 7.09375 151.318 7.48828C151.451 7.87891 151.518 8.30664 151.518 8.77148V8.89453C151.518 9.35547 151.451 9.7832 151.318 10.1777C151.186 10.5684 150.992 10.9102 150.738 11.2031C150.484 11.4922 150.174 11.7168 149.807 11.877C149.439 12.0371 149.02 12.1172 148.547 12.1172C148.078 12.1172 147.658 12.0371 147.287 11.877C146.916 11.7168 146.604 11.4922 146.35 11.2031C146.096 10.9102 145.902 10.5684 145.77 10.1777C145.637 9.7832 145.57 9.35547 145.57 8.89453ZM147.117 8.77148V8.89453C147.117 9.17188 147.145 9.43164 147.199 9.67383C147.254 9.91602 147.338 10.1289 147.451 10.3125C147.564 10.4961 147.711 10.6406 147.891 10.7461C148.074 10.8477 148.293 10.8984 148.547 10.8984C148.797 10.8984 149.012 10.8477 149.191 10.7461C149.371 10.6406 149.518 10.4961 149.631 10.3125C149.748 10.1289 149.834 9.91602 149.889 9.67383C149.943 9.43164 149.971 9.17188 149.971 8.89453V8.77148C149.971 8.49805 149.943 8.24219 149.889 8.00391C149.834 7.76172 149.748 7.54883 149.631 7.36523C149.518 7.17773 149.369 7.03125 149.186 6.92578C149.006 6.81641 148.789 6.76172 148.535 6.76172C148.285 6.76172 148.07 6.81641 147.891 6.92578C147.711 7.03125 147.564 7.17773 147.451 7.36523C147.338 7.54883 147.254 7.76172 147.199 8.00391C147.145 8.24219 147.117 8.49805 147.117 8.77148ZM154.184 6.96094V12H152.637V5.66016H154.096L154.184 6.96094ZM153.955 8.60156H153.48C153.48 8.16016 153.533 7.75391 153.639 7.38281C153.748 7.01172 153.908 6.68945 154.119 6.41602C154.33 6.13867 154.59 5.92383 154.898 5.77148C155.211 5.61914 155.572 5.54297 155.982 5.54297C156.268 5.54297 156.529 5.58594 156.768 5.67188C157.006 5.75391 157.211 5.88477 157.383 6.06445C157.559 6.24023 157.693 6.4707 157.787 6.75586C157.881 7.03711 157.928 7.375 157.928 7.76953V12H156.381V7.92773C156.381 7.63086 156.338 7.39844 156.252 7.23047C156.17 7.0625 156.051 6.94531 155.895 6.87891C155.738 6.80859 155.551 6.77344 155.332 6.77344C155.09 6.77344 154.881 6.82227 154.705 6.91992C154.533 7.01367 154.391 7.14453 154.277 7.3125C154.168 7.48047 154.086 7.67383 154.031 7.89258C153.98 8.11133 153.955 8.34766 153.955 8.60156ZM157.811 8.31445L157.172 8.43164C157.176 8.0332 157.23 7.66016 157.336 7.3125C157.441 6.96094 157.596 6.6543 157.799 6.39258C158.006 6.12695 158.262 5.91992 158.566 5.77148C158.875 5.61914 159.23 5.54297 159.633 5.54297C159.945 5.54297 160.227 5.58789 160.477 5.67773C160.73 5.76367 160.947 5.90234 161.127 6.09375C161.307 6.28125 161.443 6.52539 161.537 6.82617C161.635 7.12695 161.684 7.49414 161.684 7.92773V12H160.125V7.92188C160.125 7.61328 160.082 7.37695 159.996 7.21289C159.914 7.04883 159.795 6.93555 159.639 6.87305C159.482 6.80664 159.299 6.77344 159.088 6.77344C158.873 6.77344 158.686 6.81445 158.525 6.89648C158.369 6.97461 158.236 7.08398 158.127 7.22461C158.021 7.36523 157.941 7.5293 157.887 7.7168C157.836 7.90039 157.811 8.09961 157.811 8.31445ZM163.066 3H164.619V10.5996L164.467 12H163.066V3ZM168.697 8.76562V8.88867C168.697 9.36133 168.645 9.79492 168.539 10.1895C168.438 10.584 168.283 10.9258 168.076 11.2148C167.869 11.5 167.611 11.7227 167.303 11.8828C166.998 12.0391 166.641 12.1172 166.23 12.1172C165.84 12.1172 165.5 12.041 165.211 11.8887C164.926 11.7363 164.686 11.5215 164.49 11.2441C164.295 10.9629 164.139 10.6328 164.021 10.2539C163.904 9.87109 163.816 9.45312 163.758 9V8.66602C163.816 8.20898 163.904 7.79102 164.021 7.41211C164.139 7.0332 164.295 6.70312 164.49 6.42188C164.686 6.14062 164.926 5.92383 165.211 5.77148C165.496 5.61914 165.832 5.54297 166.219 5.54297C166.633 5.54297 166.994 5.62305 167.303 5.7832C167.615 5.93945 167.873 6.16211 168.076 6.45117C168.283 6.73633 168.438 7.07617 168.539 7.4707C168.645 7.86133 168.697 8.29297 168.697 8.76562ZM167.145 8.88867V8.76562C167.145 8.49609 167.123 8.24219 167.08 8.00391C167.037 7.76172 166.967 7.54883 166.869 7.36523C166.771 7.18164 166.639 7.03711 166.471 6.93164C166.303 6.82617 166.092 6.77344 165.838 6.77344C165.596 6.77344 165.389 6.81445 165.217 6.89648C165.049 6.97852 164.908 7.0918 164.795 7.23633C164.686 7.38086 164.6 7.55078 164.537 7.74609C164.479 7.94141 164.439 8.15234 164.42 8.37891V9.29297C164.447 9.59375 164.512 9.86523 164.613 10.1074C164.715 10.3457 164.865 10.5352 165.064 10.6758C165.268 10.8164 165.529 10.8867 165.85 10.8867C166.1 10.8867 166.309 10.8379 166.477 10.7402C166.645 10.6387 166.777 10.498 166.875 10.3184C166.973 10.1348 167.041 9.92188 167.08 9.67969C167.123 9.4375 167.145 9.17383 167.145 8.88867ZM171.369 6.95508V12H169.822V5.66016H171.287L171.369 6.95508ZM173.297 5.61914L173.273 7.06055C173.188 7.04492 173.09 7.0332 172.98 7.02539C172.875 7.01758 172.775 7.01367 172.682 7.01367C172.443 7.01367 172.234 7.04688 172.055 7.11328C171.875 7.17578 171.725 7.26758 171.604 7.38867C171.486 7.50977 171.396 7.6582 171.334 7.83398C171.271 8.00586 171.236 8.20117 171.229 8.41992L170.895 8.37891C170.895 7.97656 170.936 7.60352 171.018 7.25977C171.1 6.91602 171.219 6.61523 171.375 6.35742C171.531 6.09961 171.727 5.90039 171.961 5.75977C172.199 5.61523 172.473 5.54297 172.781 5.54297C172.867 5.54297 172.959 5.55078 173.057 5.56641C173.158 5.57812 173.238 5.5957 173.297 5.61914ZM176.877 12.1172C176.396 12.1172 175.965 12.0391 175.582 11.8828C175.199 11.7266 174.873 11.5098 174.604 11.2324C174.338 10.9512 174.133 10.625 173.988 10.2539C173.848 9.87891 173.777 9.47656 173.777 9.04688V8.8125C173.777 8.32422 173.848 7.88086 173.988 7.48242C174.129 7.08008 174.328 6.73438 174.586 6.44531C174.844 6.15625 175.152 5.93359 175.512 5.77734C175.871 5.62109 176.268 5.54297 176.701 5.54297C177.15 5.54297 177.547 5.61914 177.891 5.77148C178.234 5.91992 178.521 6.13086 178.752 6.4043C178.982 6.67773 179.156 7.00586 179.273 7.38867C179.391 7.76758 179.449 8.1875 179.449 8.64844V9.29883H174.48V8.23242H177.926V8.11523C177.918 7.86914 177.871 7.64453 177.785 7.44141C177.699 7.23438 177.566 7.07031 177.387 6.94922C177.207 6.82422 176.975 6.76172 176.689 6.76172C176.459 6.76172 176.258 6.8125 176.086 6.91406C175.918 7.01172 175.777 7.15234 175.664 7.33594C175.555 7.51562 175.473 7.73047 175.418 7.98047C175.363 8.23047 175.336 8.50781 175.336 8.8125V9.04688C175.336 9.3125 175.371 9.55859 175.441 9.78516C175.516 10.0117 175.623 10.209 175.764 10.377C175.908 10.541 176.08 10.6699 176.279 10.7637C176.482 10.8535 176.713 10.8984 176.971 10.8984C177.295 10.8984 177.588 10.8359 177.85 10.7109C178.115 10.582 178.346 10.3926 178.541 10.1426L179.32 10.9512C179.188 11.1465 179.008 11.334 178.781 11.5137C178.559 11.6934 178.289 11.8398 177.973 11.9531C177.656 12.0625 177.291 12.1172 176.877 12.1172Z" fill="white"/>
</svg>
