<svg width="289" height="26" viewBox="0 0 289 26" fill="none" xmlns="http://www.w3.org/2000/svg">
<g clip-path="url(#clip0_779_771)">
<path d="M17.04 20.043H14.078V15.403C14.078 14.296 14.055 12.872 12.534 12.872C10.99 12.872 10.754 14.076 10.754 15.321V20.043H7.793V10.5H10.637V11.8H10.676C11.073 11.05 12.04 10.26 13.484 10.26C16.485 10.26 17.04 12.234 17.04 14.805V20.043ZM4.447 9.194C3.493 9.194 2.727 8.423 2.727 7.474C2.727 6.525 3.494 5.754 4.447 5.754C4.90317 5.754 5.34066 5.93521 5.66322 6.25778C5.98579 6.58034 6.167 7.01783 6.167 7.474C6.167 7.93017 5.98579 8.36766 5.66322 8.69022C5.34066 9.01279 4.90317 9.194 4.447 9.194ZM5.931 20.044H2.961V10.5H5.931V20.044ZM18.522 3H1.476C0.66 3 0 3.645 0 4.44V21.56C0 22.355 0.66 23 1.476 23H18.518C19.333 23 20 22.356 20 21.56V4.44C20 3.646 19.333 3 18.518 3H18.522Z" fill="white"/>
</g>
<path d="M148.778 3H133.222C132 3 131 4 131 5.22222V20.7778C131 22.0011 132 23 133.222 23H141V15.2222H138.778V12.4722H141V10.1944C141 7.79 142.347 6.10111 145.184 6.10111L147.188 6.10333V8.99778H145.858C144.753 8.99778 144.333 9.82667 144.333 10.5956V12.4733H147.187L146.556 15.2222H144.333V23H148.778C150 23 151 22.0011 151 20.7778V5.22222C151 4 150 3 148.778 3Z" fill="white"/>
<path d="M269.333 2C267.492 2 266 3.49238 266 5.33333V18.6667C266 20.5076 267.492 22 269.333 22H282.667C284.508 22 286 20.5076 286 18.6667V5.33333C286 3.49238 284.508 2 282.667 2H269.333ZM270.327 6.28571H274.106L276.791 10.0999L280.048 6.28571H281.238L277.328 10.8635L282.15 17.7143H278.371L275.256 13.2891L271.476 17.7143H270.286L274.718 12.5255L270.327 6.28571ZM272.15 7.2381L278.867 16.7619H280.327L273.609 7.2381H272.15Z" fill="white"/>
<defs>
<clipPath id="clip0_779_771">
<rect width="20" height="20" fill="white" transform="translate(0 3)"/>
</clipPath>
</defs>
</svg>
