<svg width="48" height="48" viewBox="0 0 48 48" fill="none" xmlns="http://www.w3.org/2000/svg">
<path d="M34.0008 21.6107C34.0008 20.9187 34.0008 20.5727 34.1048 20.2647C34.4068 19.3687 35.2048 19.0227 36.0048 18.6587C36.9008 18.2487 37.3488 18.0447 37.7948 18.0087C38.2988 17.9687 38.8048 18.0767 39.2368 18.3187C39.8088 18.6387 40.2088 19.2507 40.6168 19.7467C42.5028 22.0387 43.4468 23.1847 43.7908 24.4467C44.0708 25.4667 44.0708 26.5347 43.7908 27.5527C43.2888 29.3967 41.6988 30.9407 40.5208 32.3727C39.9188 33.1027 39.6168 33.4687 39.2368 33.6827C38.7974 33.9264 38.2955 34.0343 37.7948 33.9927C37.3488 33.9567 36.9008 33.7527 36.0028 33.3427C35.2028 32.9787 34.4068 32.6327 34.1048 31.7367C34.0008 31.4287 34.0008 31.0827 34.0008 30.3907V21.6107ZM14.0008 21.6107C14.0008 20.7387 13.9768 19.9567 13.2728 19.3447C13.0168 19.1227 12.6768 18.9687 11.9988 18.6587C11.1008 18.2507 10.6528 18.0447 10.2068 18.0087C8.87279 17.9007 8.15479 18.8127 7.38679 19.7487C5.49879 22.0387 4.55479 23.1847 4.20879 24.4487C3.9304 25.4654 3.9304 26.5381 4.20879 27.5547C4.71279 29.3967 6.30479 30.9427 7.48079 32.3727C8.22279 33.2727 8.93279 34.0947 10.2068 33.9927C10.6528 33.9567 11.1008 33.7527 11.9988 33.3427C12.6788 33.0347 13.0168 32.8787 13.2728 32.6567C13.9768 32.0447 14.0008 31.2627 14.0008 30.3927V21.6107Z" stroke="#306CFE" stroke-width="2" stroke-linecap="round" stroke-linejoin="round"/>
<path d="M10 18C10 11.372 16.268 6 24 6C31.732 6 38 11.372 38 18M38 34V35.6C38 39.134 34.42 42 30 42H26" stroke="#787878" stroke-width="2" stroke-linecap="round" stroke-linejoin="round"/>
</svg>
